<svg width="16" height="17" viewBox="0 0 16 17" fill="none" xmlns="http://www.w3.org/2000/svg">
<g clip-path="url(#clip0_2001_2678)">
<path d="M8 16.5C12.4183 16.5 16 12.9183 16 8.5C16 4.08172 12.4183 0.5 8 0.5C3.58172 0.5 0 4.08172 0 8.5C0 12.9183 3.58172 16.5 8 16.5Z" fill="url(#paint0_linear_2001_2678)"/>
<path fill-rule="evenodd" clip-rule="evenodd" d="M3.6213 8.41553C5.95346 7.39945 7.50861 6.72958 8.28672 6.40593C10.5084 5.48186 10.9701 5.32134 11.2709 5.31604C11.3371 5.31487 11.4851 5.33127 11.581 5.40905C11.6619 5.47472 11.6842 5.56343 11.6948 5.6257C11.7055 5.68796 11.7187 5.8298 11.7082 5.94063C11.5878 7.20562 11.0668 10.2754 10.8018 11.6922C10.6897 12.2917 10.4689 12.4927 10.2551 12.5124C9.79052 12.5552 9.43775 12.2054 8.98778 11.9104C8.28368 11.4489 7.8859 11.1616 7.20245 10.7112C6.4126 10.1907 6.92463 9.9046 7.37476 9.43708C7.49256 9.31472 9.53949 7.45288 9.57911 7.28398C9.58406 7.26286 9.58866 7.18412 9.54188 7.14255C9.49511 7.10097 9.42607 7.11519 9.37625 7.12649C9.30563 7.14252 8.18081 7.88598 6.0018 9.35688C5.68253 9.57612 5.39334 9.68294 5.13423 9.67734C4.84859 9.67117 4.29913 9.51583 3.89067 9.38306C3.38966 9.2202 2.99148 9.1341 3.02615 8.85752C3.04421 8.71346 3.2426 8.56613 3.6213 8.41553Z" fill="white"/>
</g>
<defs>
<linearGradient id="paint0_linear_2001_2678" x1="800" y1="0.5" x2="800" y2="1588.63" gradientUnits="userSpaceOnUse">
<stop stop-color="#2AABEE"/>
<stop offset="1" stop-color="#229ED9"/>
</linearGradient>
<clipPath id="clip0_2001_2678">
<rect width="16" height="16" fill="white" transform="translate(0 0.5)"/>
</clipPath>
</defs>
</svg>
