<svg width="16" height="17" viewBox="0 0 16 17" fill="none" xmlns="http://www.w3.org/2000/svg">
<path d="M15.6654 4.71778C15.4811 4.04128 14.9397 3.50964 14.2509 3.32855C13.0036 3 7.99997 3 7.99997 3C7.99997 3 2.99637 3 1.74909 3.32855C1.06026 3.50964 0.518933 4.04128 0.334541 4.71778C1.0014e-07 5.94273 0 8.5 0 8.5C0 8.5 1.0014e-07 11.0573 0.334541 12.2822C0.518933 12.9587 1.06026 13.4904 1.74909 13.6714C2.99637 14 7.99997 14 7.99997 14C7.99997 14 13.0036 14 14.2509 13.6714C14.9397 13.4904 15.4811 12.9587 15.6654 12.2822C16 11.0573 16 8.5 16 8.5C16 8.5 15.9987 5.94273 15.6654 4.71778Z" fill="#FF0000"/>
<path d="M6.39844 10.857L10.5552 8.50022L6.39844 6.14343V10.857Z" fill="white"/>
</svg>
