<svg width="21" height="20" viewBox="0 0 21 20" fill="none" xmlns="http://www.w3.org/2000/svg">
<path fill-rule="evenodd" clip-rule="evenodd" d="M15.1701 0.977778C14.5343 0.344444 13.6977 0 12.8165 0H7.27271C6.39151 0 5.53262 0.344444 4.91912 0.977778L0.981593 4.88889C0.345789 5.52222 0 6.35555 0 7.24444V12.7556C0 13.6444 0.345789 14.4889 0.981593 15.1111L4.89681 19.0111C5.53262 19.6444 6.3692 20 7.26156 20H12.7942C13.6865 20 14.5343 19.6444 15.1589 19.0111L19.0741 15.1111C19.7099 14.4778 20.0669 13.6444 20.0669 12.7556V7.23333C20.0669 6.34444 19.7099 5.5 19.0741 4.87778L15.1701 0.977778ZM4.68745 9.44395C7.3718 8.31496 9.16178 7.57067 10.0574 7.21106C12.6146 6.18431 13.146 6.00595 13.4923 6.00006C13.5685 5.99877 13.7388 6.01699 13.8491 6.10341C13.9423 6.17638 13.9679 6.27495 13.9802 6.34413C13.9924 6.41331 14.0077 6.57091 13.9956 6.69406C13.857 8.0996 13.2574 11.5105 12.9523 13.0847C12.8232 13.7508 12.5691 13.9742 12.323 13.996C11.7883 14.0435 11.3822 13.6549 10.8643 13.3272C10.0539 12.8143 9.59606 12.4951 8.80939 11.9947C7.90027 11.4163 8.48962 11.0985 9.00772 10.579C9.14332 10.443 11.4994 8.37434 11.545 8.18667C11.5507 8.1632 11.556 8.07572 11.5021 8.02952C11.4483 7.98332 11.3688 7.99912 11.3115 8.01168C11.2302 8.02949 9.9355 8.85556 7.42743 10.4899C7.05994 10.7335 6.72708 10.8522 6.42885 10.846C6.10007 10.8391 5.46764 10.6665 4.99749 10.519C4.42083 10.338 3.96251 10.2424 4.00242 9.93505C4.02321 9.77498 4.25155 9.61128 4.68745 9.44395Z" fill="#E4002B"/>
</svg>
