<svg width="24" height="24" viewBox="0 0 24 24" fill="none" xmlns="http://www.w3.org/2000/svg">
<path d="M14.25 10.2C13.575 9.82501 12.825 9.52501 12.075 9.30001C11.4 10.95 9.3 13.125 3.525 15.075C4.2 16.875 5.4 18.45 6.975 19.5C10.425 17.55 12.975 14.325 14.25 10.2Z" fill="#F57A00"/>
<path d="M11.25 7.87499C11.25 7.79999 11.25 7.64999 11.25 7.57499C10.95 5.99999 9.075 4.79999 7.125 4.42499C5.7 5.39999 4.575 6.67499 3.825 8.24999C6.45 7.57499 9 7.49999 11.25 7.87499Z" fill="#F57A00"/>
<path d="M10.95 8.99999C8.7 8.54999 6.075 8.77499 3.3 9.52499C3.15 10.35 3 11.175 3 12C3 12.675 3.075 13.35 3.225 13.95C8.475 12.15 10.35 10.35 10.95 8.99999Z" fill="#F57A00"/>
<path d="M20.475 9.075C19.725 6.975 18.3 5.25 16.425 4.2C16.35 6.15 16.05 7.95 15.6 9.675C16.2 10.125 16.8 10.575 17.325 11.1C18.15 10.125 19.125 9.525 20.475 9.075Z" fill="#F57A00"/>
<path d="M12.3 7.425C12.3 7.65 12.375 7.875 12.3 8.17499C13.125 8.39999 13.875 8.69999 14.55 9.07499C15 7.35 15.225 5.55 15.3 3.675C14.325 3.225 13.2 3 12 3C10.8 3 9.59999 3.225 8.54999 3.675C10.425 4.35 12.075 5.7 12.3 7.425Z" fill="#F57A00"/>
<path d="M16.725 19.65C17.7 19.05 18.6 18.225 19.275 17.25C18.975 15.675 18.375 14.325 17.55 13.125C17.025 14.475 16.725 16.5 16.725 19.65Z" fill="#F57A00"/>
<path d="M20.775 10.2C19.65 10.575 18.75 11.025 18.075 12C18.975 13.125 19.65 14.475 20.1 15.9C20.7 14.7 21 13.425 21 12C21 11.4 20.925 10.725 20.775 10.2Z" fill="#F57A00"/>
<path d="M15.225 10.8C13.875 14.85 11.4 18.075 8.1 20.1C9.3 20.7 10.65 21 12 21C13.275 21 14.475 20.7 15.6 20.25C15.675 16.2 15.975 13.725 16.8 12.075C16.275 11.625 15.825 11.175 15.225 10.8Z" fill="#F57A00"/>
</svg>
