<svg width="24" height="24" viewBox="0 0 24 24" fill="none" xmlns="http://www.w3.org/2000/svg">
<path fill-rule="evenodd" clip-rule="evenodd" d="M17.0687 19.438C15.6251 20.4236 13.8799 21 12 21C7.02944 21 3 16.9706 3 12C3 7.02944 7.02944 3 12 3C13.9835 3 15.8172 3.64167 17.3047 4.72876C16.1382 4.36768 14.6745 4.07439 12.9964 4.07439C8.61595 4.07439 6.09515 7.92407 6.09515 10.9756C6.09515 14.2017 8.51336 17.5924 12.6363 18.0042L12.6373 18.0043C14.1882 18.1567 15.4011 18.5881 16.2215 18.9776C16.5817 19.1486 16.8657 19.3112 17.0687 19.438ZM18.0956 18.6215C18.0304 18.5745 17.9403 18.512 17.826 18.4383C17.5801 18.2796 17.2216 18.0686 16.7576 17.8484C15.8297 17.4079 14.4774 16.9292 12.7601 16.7603C9.33131 16.4176 7.34515 13.616 7.34515 10.9756C7.34515 8.45866 9.4524 5.32439 12.9964 5.32439C14.9901 5.32439 16.6551 5.77799 17.8209 6.23166C18.4033 6.45828 18.8589 6.68405 19.1658 6.85114C19.3192 6.93464 19.4352 7.00333 19.511 7.04992C19.5148 7.05226 19.5185 7.05454 19.5221 7.05677C20.4564 8.47551 21 10.1743 21 12C21 14.619 19.8813 16.9768 18.0956 18.6215Z" fill="#C1CF17"/>
</svg>
