<svg width="16" height="16" viewBox="0 0 16 16" fill="none" xmlns="http://www.w3.org/2000/svg">
<path fill-rule="evenodd" clip-rule="evenodd" d="M1.37778 12.6109C1.13333 12.3846 1 12.0759 1 11.7466V4.25338C1 3.93441 1.13333 3.61543 1.37778 3.38907L2.47778 2.36013C2.72222 2.13376 3.05556 2 3.4 2H12.6C12.9444 2 13.2778 2.13376 13.5222 2.36013L14.6222 3.38907C14.8667 3.61543 15 3.92412 15 4.25338V11.7466C15 12.0656 14.8667 12.3846 14.6222 12.6109L13.5222 13.6399C13.2778 13.8662 12.9444 14 12.6 14H3.4C3.05556 14 2.72222 13.8662 2.47778 13.6399L1.37778 12.6109ZM11.0532 8.39004C11.3332 8.21683 11.3332 7.78382 11.0532 7.61061L6.78794 4.97217C6.50794 4.79896 6.15794 5.01547 6.15794 5.36188V10.6388C6.15794 10.9852 6.50794 11.2017 6.78794 11.0285L11.0532 8.39004Z" fill="#D3D7DE"/>
</svg>
