<svg width="24" height="24" viewBox="0 0 24 24" fill="none" xmlns="http://www.w3.org/2000/svg">
<path d="M7.95028 14.016C6.80168 10.5926 6.54294 7.33687 7.19655 4.37475C6.02545 5.11838 5.0006 6.14325 4.24574 7.41562C2.71464 10.029 2.63589 13.0923 3.78449 15.6608L3.88574 15.6383C5.49558 15.1882 6.84668 14.6134 7.96153 14.0385C7.95028 14.0284 7.95028 14.0283 7.95028 14.016ZM11.4973 3C10.4612 3.05625 9.46 3.28125 8.51389 3.68737L8.42389 4.0485C7.67016 6.92063 7.86141 10.0864 8.96388 13.476C10.1012 12.7887 10.8775 12.1586 11.3173 11.8088C11.3511 11.7863 11.3623 11.775 11.3961 11.7525C11.3848 11.7075 11.3736 11.6625 11.3623 11.6063C11.1148 10.389 10.4612 7.19063 11.4973 3ZM12.2522 12.6874C12.1959 12.6649 12.1509 12.6536 12.0947 12.6311C12.0722 12.6536 12.0609 12.6649 12.0272 12.6874C11.0698 13.4535 8.57014 15.4808 4.32561 16.6868C4.8206 17.5092 5.46296 18.264 6.22794 18.9053L6.63293 18.7928C9.56012 17.9817 12.386 16.2592 14.852 13.8146C13.7045 13.2172 12.7809 12.8787 12.2522 12.6874ZM16.5754 4.2285C15.3369 3.49612 13.997 3.10125 12.6572 3L12.6234 3.12375C12.2297 4.656 12.0834 6.04088 12.0609 7.24688C16.4742 8.29425 19.3114 10.209 21 11.7638C20.9325 8.75663 19.3451 5.86088 16.5754 4.2285ZM19.3001 17.0805C18.1066 15.9093 16.9354 15.042 15.8667 14.3884C13.3557 16.968 10.4398 18.804 7.40017 19.7277C7.41142 19.7389 7.42267 19.7388 7.43392 19.7501C8.86263 20.595 10.4387 21 11.9934 21C14.8531 21 17.6453 19.6377 19.3789 17.1593L19.3001 17.0805ZM20.6063 12.9349C19.1201 11.4589 16.4292 9.5115 12.0722 8.418C12.1397 9.78038 12.3534 10.8176 12.4659 11.3801C12.4884 11.4589 12.4997 11.5151 12.5109 11.5826C12.5447 11.5939 12.5897 11.6051 12.6347 11.6276C13.7945 12.045 16.8454 13.1374 19.9751 16.167C20.4701 15.2322 20.7863 14.241 20.9213 13.2499L20.6063 12.9349Z" fill="#3358E5"/>
</svg>
