<svg width="106" height="24" viewBox="0 0 106 24" fill="none" xmlns="http://www.w3.org/2000/svg">
<g clip-path="url(#clip0_2001_525)">
<path d="M101.443 17.079C101.3 17.079 101.169 17.0001 101.107 16.8761L100.374 15.4207H94.2597L93.5412 16.8739C93.4791 16.9991 93.3481 17.079 93.2035 17.079H89.8985C89.6214 17.079 89.4405 16.7993 89.5639 16.5606L94.4876 6.99776C94.5512 6.87533 94.6807 6.79785 94.823 6.79785H99.8595C99.9988 6.79785 100.127 6.87211 100.191 6.99059L105.397 16.5535C105.527 16.7925 105.346 17.079 105.065 17.079H101.443ZM95.5113 12.8505H99.0645L97.2663 9.31287L95.5113 12.8505Z" fill="#E4002B"/>
<path d="M73.905 7.15698C73.905 6.95864 74.0724 6.79785 74.2789 6.79785H78.3272C78.4249 6.79785 78.5188 6.83466 78.5892 6.90038L84.6948 12.6431V7.15699C84.6948 6.95864 84.8621 6.79785 85.0688 6.79785H88.3775C88.5842 6.79785 88.7515 6.95864 88.7515 7.15699V16.7199C88.7515 16.9182 88.5842 17.079 88.3775 17.079H84.8174C84.7205 17.079 84.6266 17.0427 84.557 16.9779L77.9623 10.8468V16.7199C77.9623 16.9182 77.7942 17.079 77.5882 17.079H74.2789C74.0724 17.079 73.905 16.9182 73.905 16.7199V7.15698Z" fill="#E4002B"/>
<path d="M61.0054 7.15698C61.0054 6.95864 61.1728 6.79785 61.3793 6.79785H72.4714C72.6779 6.79785 72.8453 6.95864 72.8453 7.15699V8.95374C72.8453 9.15207 72.6779 9.31287 72.4714 9.31287H65.0335V10.598H72.3132C72.5196 10.598 72.687 10.7588 72.687 10.9571V12.7401C72.687 12.9384 72.5196 13.0992 72.3132 13.0992H65.0335V14.5087H72.5865C72.793 14.5087 72.9604 14.6695 72.9604 14.8679V16.7199C72.9604 16.9182 72.793 17.079 72.5865 17.079H61.3793C61.1728 17.079 61.0054 16.9182 61.0054 16.7199V7.15698Z" fill="#E4002B"/>
<path d="M49.7896 13.5552V16.7199C49.7896 16.9182 49.6221 17.079 49.4157 17.079H46.0777C45.8713 17.079 45.7039 16.9182 45.7039 16.7199V7.15698C45.7039 6.95864 45.8713 6.79785 46.0777 6.79785H55.429C58.5652 6.79785 59.9319 7.76516 59.9319 9.43723V9.58923C59.9319 11.0817 58.5796 11.6897 57.7739 11.8831C59.0831 12.1733 59.975 13.0025 59.975 14.329V15.8491C59.975 16.1462 60.0741 16.4393 60.1333 16.7228C60.1739 16.9173 60.0091 17.079 59.8025 17.079H56.1913C56.0737 17.079 55.9553 17.0276 55.9198 16.9199C55.8899 16.829 55.8749 16.7108 55.8749 16.5401V15.3378C55.8749 14.1494 55.3139 13.5552 53.7026 13.5552H49.7896ZM49.7896 9.29905V11.0679H54.4795C55.3714 11.0679 55.7167 10.6809 55.7167 10.1834V10.1696C55.7167 9.68596 55.3858 9.29905 54.4795 9.29905H49.7896Z" fill="#E4002B"/>
<path d="M41.0612 17.079C40.9178 17.079 40.7871 17.0001 40.7246 16.8761L39.9923 15.4207H33.8781L33.1595 16.8739C33.0976 16.9991 32.9661 17.079 32.8218 17.079H29.5169C29.2397 17.079 29.0589 16.7993 29.1818 16.5606L34.1061 6.99776C34.1691 6.87533 34.299 6.79785 34.4412 6.79785H39.4781C39.6173 6.79785 39.745 6.87211 39.8094 6.99058L45.0147 16.5535C45.1449 16.7925 44.9643 17.079 44.6834 17.079H41.0612ZM35.1298 12.8504H38.6831L36.8848 9.31288L35.1298 12.8504Z" fill="#E4002B"/>
<mask id="mask0_2001_525" style="mask-type:luminance" maskUnits="userSpaceOnUse" x="0" y="0" width="26" height="24">
<path d="M25.1349 0H0V23.9163H25.1349V0Z" fill="white"/>
</mask>
<g mask="url(#mask0_2001_525)">
<path d="M11.8257 0.140444C12.301 -0.0468149 12.8339 -0.0468147 13.3092 0.140444L20.8211 3.10001C21.3006 3.28897 21.6825 3.65319 21.8825 4.11255L24.9835 11.2336C25.1854 11.6972 25.1854 12.2191 24.9835 12.6827L21.8825 19.8038C21.6825 20.2631 21.3006 20.6273 20.8211 20.8163L13.3092 23.7759C12.8339 23.9631 12.301 23.9631 11.8257 23.7759L4.31393 20.8163C3.83432 20.6273 3.4525 20.2631 3.25246 19.8038L0.151401 12.6827C-0.0504669 12.2191 -0.0504669 11.6972 0.151401 11.2336L3.25246 4.11255C3.4525 3.65319 3.83432 3.28897 4.31393 3.10001L11.8257 0.140444Z" fill="#E4002B"/>
<path d="M4.67513 7.55244C4.57878 7.48247 4.44082 7.51942 4.3944 7.62771L3.13265 10.5716C2.89928 11.1161 3.02756 11.7446 3.45675 12.1597L5.70683 14.3359L3.52297 14.3312C3.39044 14.3309 3.30067 14.4631 3.35231 14.5825L4.70646 17.7132C4.87193 18.0956 5.1975 18.3902 5.60028 18.5217L12.03 20.6209C12.334 20.7201 12.6626 20.7201 12.9665 20.6209L19.3964 18.5217C19.7992 18.3902 20.1247 18.0956 20.2902 17.7132L21.6443 14.5825C21.696 14.4631 21.6062 14.3309 21.4737 14.3312L19.2898 14.3359L21.5399 12.1597C21.9691 11.7446 22.0973 11.1161 21.864 10.5716L20.6023 7.62771C20.5558 7.51942 20.4178 7.48247 20.3215 7.55244L18.8087 8.65164L18.7947 6.77823C18.7904 6.20004 18.4345 5.67989 17.8897 5.45551L14.7252 4.15206C14.6033 4.10187 14.4686 4.18939 14.4686 4.31873V5.5478C14.4686 5.99809 14.6829 6.4227 15.0484 6.69645L18.3118 9.14073V14.3359L12.4983 19.2802L6.68482 14.3359V9.14073L9.9482 6.69645C10.3137 6.4227 10.5281 5.99809 10.5281 5.5478V4.31873C10.5281 4.18939 10.3933 4.10187 10.2714 4.15206L7.10689 5.45551C6.5621 5.67989 6.20624 6.20004 6.20191 6.77823L6.18789 8.65164L4.67513 7.55244Z" fill="white"/>
<path d="M11.8257 0.140444C12.301 -0.0468149 12.8339 -0.0468147 13.3092 0.140444L20.8211 3.10001C21.3006 3.28897 21.6825 3.65319 21.8825 4.11255L24.9835 11.2336C25.1854 11.6972 25.1854 12.2191 24.9835 12.6827L21.8825 19.8038C21.6825 20.2631 21.3006 20.6273 20.8211 20.8163L13.3092 23.7759C12.8339 23.9631 12.301 23.9631 11.8257 23.7759L4.31393 20.8163C3.83432 20.6273 3.4525 20.2631 3.25246 19.8038L0.151401 12.6827C-0.0504669 12.2191 -0.0504669 11.6972 0.151401 11.2336L3.25246 4.11255C3.4525 3.65319 3.83432 3.28897 4.31393 3.10001L11.8257 0.140444Z" fill="#E4002B"/>
<path d="M4.67513 7.55244C4.57878 7.48247 4.44082 7.51942 4.3944 7.62771L3.13265 10.5716C2.89928 11.1161 3.02756 11.7446 3.45675 12.1597L5.70683 14.3359L3.52297 14.3312C3.39044 14.3309 3.30067 14.4631 3.35231 14.5825L4.70646 17.7132C4.87193 18.0956 5.1975 18.3902 5.60028 18.5217L12.03 20.6209C12.334 20.7201 12.6626 20.7201 12.9665 20.6209L19.3964 18.5217C19.7992 18.3902 20.1247 18.0956 20.2902 17.7132L21.6443 14.5825C21.696 14.4631 21.6062 14.3309 21.4737 14.3312L19.2898 14.3359L21.5399 12.1597C21.9691 11.7446 22.0973 11.1161 21.864 10.5716L20.6023 7.62771C20.5558 7.51942 20.4178 7.48247 20.3215 7.55244L18.8087 8.65164L18.7947 6.77823C18.7904 6.20004 18.4345 5.67989 17.8897 5.45551L14.7252 4.15206C14.6033 4.10187 14.4686 4.18939 14.4686 4.31873V5.5478C14.4686 5.99809 14.6829 6.4227 15.0484 6.69645L18.3118 9.14073V14.3359L12.4983 19.2802L6.68482 14.3359V9.14073L9.9482 6.69645C10.3137 6.4227 10.5281 5.99809 10.5281 5.5478V4.31873C10.5281 4.18939 10.3933 4.10187 10.2714 4.15206L7.10689 5.45551C6.5621 5.67989 6.20624 6.20004 6.20191 6.77823L6.18789 8.65164L4.67513 7.55244Z" fill="white"/>
</g>
</g>
<defs>
<clipPath id="clip0_2001_525">
<rect width="106" height="24" fill="white"/>
</clipPath>
</defs>
</svg>
