<svg width="22" height="20" viewBox="0 0 22 20" fill="none" xmlns="http://www.w3.org/2000/svg">
<path fill-rule="evenodd" clip-rule="evenodd" d="M16.1366 0.977778C15.5008 0.344444 14.6642 0 13.783 0H8.23927C7.35806 0 6.49917 0.344444 5.88567 0.977778L1.94815 4.88889C1.31234 5.52222 0.966553 6.35555 0.966553 7.24444V12.7556C0.966553 13.6444 1.31234 14.4889 1.94815 15.1111L5.86336 19.0111C6.49917 19.6444 7.33575 20 8.22811 20H13.7607C14.6531 20 15.5008 19.6444 16.1255 19.0111L20.0407 15.1111C20.6765 14.4778 21.0334 13.6444 21.0334 12.7556V7.23333C21.0334 6.34444 20.6765 5.5 20.0407 4.87778L16.1366 0.977778Z" fill="#E4002B"/>
<path d="M9.95971 6.94856C10.0578 7.04736 10.191 7.10286 10.3297 7.10286H11.6566C11.7954 7.10286 11.9285 7.04736 12.0266 6.94856L12.7623 6.2079C12.9667 6.00217 13.298 6.00217 13.5024 6.2079C13.7068 6.41363 13.7068 6.74719 13.5024 6.95291L13.3532 7.10309H14.6143C14.807 6.54809 14.6831 5.90646 14.2425 5.46289C13.6294 4.8457 12.6354 4.8457 12.0223 5.46289L10.9932 6.49889L9.96403 5.46289C9.35094 4.8457 8.35693 4.8457 7.74383 5.46289C7.30321 5.90646 7.17926 6.54809 7.37198 7.1031H8.63309L8.4839 6.95291C8.27954 6.74719 8.27954 6.41363 8.4839 6.2079C8.68826 6.00217 9.0196 6.00217 9.22397 6.2079L9.95971 6.94856Z" fill="white"/>
<path d="M10.4718 7.96475C10.5177 8.01087 10.5434 8.07342 10.5434 8.13864V9.3395C10.5434 9.40472 10.5177 9.46727 10.4718 9.51339L10.266 9.72064C10.2201 9.76677 10.158 9.79267 10.0932 9.79267L6.41672 9.79267C6.35193 9.79267 6.2898 9.76677 6.24398 9.72064L6.03811 9.51339C5.99229 9.46727 5.96655 9.40466 5.96655 9.33944V8.13864C5.96655 8.07342 5.99229 8.01087 6.03811 7.96475L6.24398 7.75749C6.2898 7.71137 6.35193 7.68546 6.41672 7.68546L10.0932 7.68546C10.158 7.68546 10.2201 7.71137 10.266 7.75749L10.4718 7.96475Z" fill="white"/>
<path d="M15.895 7.96475C15.9408 8.01087 15.9666 8.07342 15.9666 8.13864V9.3395C15.9666 9.40472 15.9408 9.46727 15.895 9.51339L15.6891 9.72064C15.6433 9.76677 15.5812 9.79267 15.5164 9.79267L11.8399 9.79267C11.7751 9.79267 11.713 9.76677 11.6671 9.72064L11.4613 9.51339C11.4155 9.46727 11.3897 9.40466 11.3897 9.33944V8.13864C11.3897 8.07342 11.4155 8.01087 11.4613 7.96475L11.6671 7.75749C11.713 7.71137 11.7751 7.68546 11.8399 7.68546L15.5164 7.68546C15.5812 7.68546 15.6433 7.71137 15.6891 7.75749L15.895 7.96475Z" fill="white"/>
<path d="M10.5469 12.3148V13.3288C10.5473 13.3345 10.5475 13.3403 10.5475 13.346V14.5468C10.5475 14.612 10.5218 14.6746 10.476 14.7207L10.2701 14.928C10.2243 14.9741 10.1621 15 10.0974 15L8.13766 15C7.90591 15 7.68164 14.9094 7.51717 14.7561L6.77707 14.0592C6.6126 13.9058 6.52289 13.6968 6.52289 13.4737V11.2517L6.52311 11.0968C6.52311 11.0315 6.54891 10.969 6.59482 10.9229L6.80114 10.7156C6.84706 10.6695 6.90933 10.6436 6.97426 10.6436H10.0964C10.1613 10.6436 10.2236 10.6695 10.2695 10.7156L10.4758 10.9229C10.5217 10.969 10.5475 11.0316 10.5475 11.0968V12.2976C10.5475 12.3034 10.5473 12.3091 10.5469 12.3148Z" fill="white"/>
<path d="M15.4639 12.3148V13.4737C15.4639 13.6968 15.3742 13.9058 15.2098 14.0592L14.4697 14.7561C14.3052 14.9094 14.0809 15 13.8492 15H11.8425C11.7777 15 11.7156 14.9741 11.6697 14.928L11.4639 14.7207C11.418 14.6746 11.3923 14.612 11.3923 14.5468L11.3922 12.3076C11.3921 12.3043 11.392 12.3009 11.392 12.2976V11.0968C11.392 11.0315 11.4177 10.969 11.4635 10.9229L11.6694 10.7156C11.7152 10.6695 11.7774 10.6436 11.8422 10.6436H15.0144C15.0792 10.6436 15.1413 10.6695 15.1871 10.7156L15.393 10.9229C15.4388 10.969 15.4645 11.0316 15.4645 11.0968V12.2976C15.4645 12.3034 15.4643 12.3091 15.4639 12.3148Z" fill="white"/>
</svg>
