<svg width="18" height="18" viewBox="0 0 18 18" fill="none" xmlns="http://www.w3.org/2000/svg">
<path fill-rule="evenodd" clip-rule="evenodd" d="M13.6076 0.88C13.0372 0.31 12.2868 0 11.4964 0H6.52362C5.73318 0 4.96276 0.31 4.41245 0.88L0.880489 4.4C0.310172 4.97 0 5.72 0 6.52V11.48C0 12.28 0.310172 13.04 0.880489 13.6L4.39244 17.11C4.96276 17.68 5.71317 18 6.51362 18H11.4764C12.2768 18 13.0372 17.68 13.5976 17.11L17.1095 13.6C17.6798 13.03 18 12.28 18 11.48V6.51C18 5.71 17.6798 4.95 17.1095 4.39L13.6076 0.88ZM6.5 5C5.94772 5 5.5 5.44772 5.5 6C5.5 6.55229 5.94772 7 6.5 7L11.5 7C12.0523 7 12.5 6.55229 12.5 6C12.5 5.44772 12.0523 5 11.5 5L6.5 5ZM6.5 8C5.94772 8 5.5 8.44772 5.5 9C5.5 9.55229 5.94772 10 6.5 10H8L8 13C8 13.5523 8.44771 14 9 14C9.55228 14 10 13.5523 10 13V10L11.5 10C12.0523 10 12.5 9.55229 12.5 9C12.5 8.44772 12.0523 8 11.5 8H9L6.5 8Z" fill="#E4002B"/>
</svg>
