<svg width="32" height="33" viewBox="0 0 32 33" fill="none" xmlns="http://www.w3.org/2000/svg">
<path d="M0.646447 7.56066L3.85355 4.35355L7.06066 1.14645C7.15443 1.05268 7.28161 1 7.41421 1H24.5858C24.7184 1 24.8456 1.05268 24.9393 1.14645L28.1464 4.35355L31.3536 7.56066C31.4473 7.65443 31.5 7.78161 31.5 7.91421V25.0858C31.5 25.2184 31.4473 25.3456 31.3536 25.4393L28.1464 28.6464L24.9393 31.8536C24.8456 31.9473 24.7184 32 24.5858 32H7.41421C7.28161 32 7.15443 31.9473 7.06066 31.8536L3.85355 28.6464L0.646446 25.4393C0.552678 25.3456 0.5 25.2184 0.5 25.0858V7.91421C0.5 7.78161 0.552678 7.65443 0.646447 7.56066Z" stroke="#E2E4E9"/>
<path d="M7.0696 20V18.858L10.0994 15.8878C10.3892 15.5952 10.6307 15.3352 10.8239 15.108C11.017 14.8807 11.1619 14.6605 11.2585 14.4474C11.3551 14.2344 11.4034 14.0071 11.4034 13.7656C11.4034 13.4901 11.3409 13.2543 11.2159 13.0582C11.0909 12.8594 10.919 12.706 10.7003 12.598C10.4815 12.4901 10.233 12.4361 9.95455 12.4361C9.66761 12.4361 9.41619 12.4957 9.20028 12.6151C8.98438 12.7315 8.81676 12.8977 8.69744 13.1136C8.58097 13.3295 8.52273 13.5866 8.52273 13.8849H7.01847C7.01847 13.331 7.14489 12.8494 7.39773 12.4403C7.65057 12.0312 7.99858 11.7145 8.44176 11.4901C8.88778 11.2656 9.39915 11.1534 9.97585 11.1534C10.5611 11.1534 11.0753 11.2628 11.5185 11.4815C11.9616 11.7003 12.3054 12 12.5497 12.3807C12.7969 12.7614 12.9205 13.196 12.9205 13.6847C12.9205 14.0114 12.858 14.3324 12.733 14.6477C12.608 14.9631 12.3878 15.3125 12.0724 15.696C11.7599 16.0795 11.321 16.544 10.7557 17.0895L9.25142 18.6193V18.679H13.0526V20H7.0696ZM19.5692 11.2727V20H17.9883V12.8111H17.9371L15.896 14.1151V12.6662L18.065 11.2727H19.5692ZM25.468 18.6023V12.7045H26.8061V18.6023H25.468ZM23.1882 16.3224V14.9844H29.0859V16.3224H23.1882Z" fill="#A7AFBE"/>
</svg>
