<svg width="24" height="24" viewBox="0 0 24 24" fill="none" xmlns="http://www.w3.org/2000/svg">
<path d="M16.0467 3.40315C16.0467 3.30615 15.9772 3.22298 15.8814 3.20742C15.36 3.1227 14.7511 3.05885 14.0398 3.02526C13.9265 3.01991 13.8321 3.11072 13.8321 3.22415V5.42496C13.8321 5.74915 13.5542 6.01196 13.2113 6.01196C12.8684 6.01196 12.5905 5.74915 12.5905 5.42496V3.20194C12.5905 3.09073 12.4997 3.00079 12.3885 3.00271C11.6931 3.01473 11.0832 3.05332 10.5484 3.11178C10.4478 3.12277 10.3723 3.20813 10.3723 3.30928V6.20766C10.3723 6.53185 10.0944 6.79466 9.75148 6.79466C9.4086 6.79466 9.13064 6.53185 9.13064 6.20766V3.5988C9.13064 3.46988 9.00972 3.37466 8.88515 3.40789C6.73426 3.98151 6.73426 4.95537 6.73426 4.95537V7.69468C6.73426 7.69468 4.49927 8.32081 4.49927 10.5123C4.49927 12.1559 6.73426 15.0517 6.73426 15.0517L8.47263 17.0689V19.9043C8.47263 20.5304 8.96929 21 9.63151 21H16.5848C17.247 21 17.8265 20.5304 17.8265 19.9043V17.6874C17.8265 17.5939 17.7617 17.5127 17.6702 17.4934C17.4078 17.438 17.0996 17.3818 16.7476 17.3321C15.4142 17.1438 13.4512 17.0472 10.9736 17.4311C10.6352 17.4835 10.316 17.2667 10.2605 16.9467C10.2051 16.6268 10.4344 16.325 10.7728 16.2726C13.3885 15.8673 15.4816 15.9664 16.931 16.171C17.4122 16.239 17.8222 16.3185 18.1567 16.395C18.249 16.4162 18.3442 16.3712 18.3832 16.2848C18.5813 15.8457 18.8065 15.2478 18.9853 14.5038C20.1442 8.94694 18.9853 4.95537 18.9853 4.95537C18.9853 4.95537 18.9853 4.21217 17.5514 3.64184C17.424 3.59117 17.2884 3.68739 17.2884 3.82449V6.20763C17.2884 6.53181 17.0104 6.79462 16.6675 6.79462C16.3246 6.79462 16.0467 6.53181 16.0467 6.20763V3.40315Z" fill="#D02C1B"/>
</svg>
