<svg width="36" height="36" viewBox="0 0 36 36" fill="none" xmlns="http://www.w3.org/2000/svg">
<path fill-rule="evenodd" clip-rule="evenodd" d="M22.9928 0C24.5736 0 26.0745 0.62 27.2151 1.76L34.219 8.78C35.3596 9.9 36 11.42 36 13.02V22.96C36 24.56 35.3596 26.06 34.219 27.2L27.1951 34.22C26.0745 35.36 24.5536 36 22.9527 36H13.0272C11.4263 36 9.92551 35.36 8.78488 34.22L1.76098 27.2C0.620345 26.08 0 24.56 0 22.96V13.04C0 11.44 0.620345 9.94 1.76098 8.8L8.8249 1.76C9.92551 0.62 11.4664 0 13.0472 0H22.9928ZM16.5312 22.7656C16.5312 23.6717 15.7967 24.4062 14.8906 24.4062C13.9845 24.4062 13.25 23.6717 13.25 22.7656C13.25 21.8595 13.9845 21.125 14.8906 21.125C15.7967 21.125 16.5312 21.8595 16.5312 22.7656ZM21.4531 22.4375C21.9968 22.4375 22.4375 21.9968 22.4375 21.4531C22.4375 20.9095 21.9968 20.4688 21.4531 20.4688C20.9095 20.4688 20.4688 20.9095 20.4688 21.4531C20.4688 21.9968 20.9095 22.4375 21.4531 22.4375ZM17.8438 17.1875C17.8438 17.9124 17.2561 18.5 16.5312 18.5C15.8064 18.5 15.2188 17.9124 15.2188 17.1875C15.2188 16.4626 15.8064 15.875 16.5312 15.875C17.2561 15.875 17.8438 16.4626 17.8438 17.1875ZM22.7656 11.2812C23.3093 11.2812 23.75 10.8405 23.75 10.2969C23.75 9.75322 23.3093 9.3125 22.7656 9.3125C22.222 9.3125 21.7812 9.75322 21.7812 10.2969C21.7812 10.8405 22.222 11.2812 22.7656 11.2812ZM28.3438 15.2188C28.3438 15.5812 28.0499 15.875 27.6875 15.875C27.3251 15.875 27.0312 15.5812 27.0312 15.2188C27.0312 14.8563 27.3251 14.5625 27.6875 14.5625C28.0499 14.5625 28.3438 14.8563 28.3438 15.2188ZM12.5938 14.5625C12.9562 14.5625 13.25 14.2687 13.25 13.9062C13.25 13.5438 12.9562 13.25 12.5938 13.25C12.2313 13.25 11.9375 13.5438 11.9375 13.9062C11.9375 14.2687 12.2313 14.5625 12.5938 14.5625ZM13.4233 8.8125C10.8791 8.8125 8.8125 10.8791 8.8125 13.4233V22.9205C8.8125 24.5986 9.76793 26.1032 11.1144 26.8952L11.1143 26.8953L11.1251 26.9013C11.8193 27.287 12.5403 27.5312 13.4233 27.5312H22.9205C23.7283 27.5312 24.5199 27.2895 25.2187 26.9013L25.2188 26.9015L25.2294 26.8952C26.5758 26.1032 27.5312 24.5986 27.5312 22.9205V19.8729C27.5312 19.6241 27.3483 19.4131 27.102 19.3779C24.8608 19.0577 23.137 17.1365 23.137 14.8407C23.137 14.4841 23.1382 14.2465 23.1982 13.9466C23.2275 13.7997 23.1895 13.6474 23.0945 13.5315C22.9996 13.4157 22.8577 13.3485 22.7079 13.3485H22.7075H22.707H22.7066H22.7062H22.7058H22.7054H22.705H22.7046H22.7042H22.7038H22.7034H22.703H22.7026H22.7022H22.7018H22.7014H22.701H22.7007H22.7003H22.6999H22.6995H22.6991H22.6987H22.6984H22.698H22.6976H22.6972H22.6969H22.6965H22.6961H22.6957H22.6954H22.695H22.6947H22.6943H22.6939H22.6936H22.6932H22.6929H22.6925H22.6921H22.6918H22.6914H22.6911H22.6907H22.6904H22.69H22.6897H22.6894H22.689H22.6887H22.6883H22.688H22.6876H22.6873H22.687H22.6866H22.6863H22.686H22.6856H22.6853H22.685H22.6847H22.6843H22.684H22.6837H22.6834H22.6831H22.6827H22.6824H22.6821H22.6818H22.6815H22.6812H22.6808H22.6805H22.6802H22.6799H22.6796H22.6793H22.679H22.6787H22.6784H22.6781H22.6778H22.6775H22.6772H22.6769H22.6766H22.6763H22.676H22.6757H22.6754H22.6751H22.6748H22.6745H22.6743H22.674H22.6737H22.6734H22.6731H22.6728H22.6726H22.6723H22.672H22.6717H22.6714H22.6712H22.6709H22.6706H22.6703H22.6701H22.6698H22.6695H22.6692H22.669H22.6687H22.6684H22.6682H22.6679H22.6676H22.6674H22.6671H22.6668H22.6666H22.6663H22.6661H22.6658H22.6655H22.6653H22.665H22.6648H22.6645H22.6642H22.664H22.6637H22.6635H22.6632H22.663H22.6627H22.6625H22.6622H22.662H22.6617H22.6615H22.6612H22.661H22.6608H22.6605H22.6603H22.66H22.6598H22.6595H22.6593H22.6591H22.6588H22.6586H22.6583H22.6581H22.6579H22.6576H22.6574H22.6572H22.6569H22.6567H22.6565H22.6562H22.656H22.6558H22.6555H22.6553H22.6551H22.6548H22.6546H22.6544H22.6542H22.6539H22.6537H22.6535H22.6532H22.653H22.6528H22.6526H22.6523H22.6521H22.6519H22.6517H22.6515H22.6512H22.651H22.6508H22.6506H22.6503H22.6501H22.6499H22.6497H22.6495H22.6493H22.649H22.6488H22.6486H22.6484H22.6482H22.6479H22.6477H22.6475H22.6473H22.6471H22.6469H22.6467H22.6464H22.6462H22.646H22.6458H22.6456H22.6454H22.6452H22.6449H22.6447H22.6445H22.6443H22.6441H22.6439H22.6437H22.6435H22.6433H22.643H22.6428H22.6426H22.6424H22.6422H22.642H22.6418H22.6416H22.6414H22.6412H22.641H22.6407H22.6405H22.6403H22.6401H22.6399H22.6397H22.6395H22.6393H22.6391H22.6389H22.6387H22.6385H22.6382H22.638H22.6378H22.6376H22.6374H22.6372H22.637H22.6368H22.6366H22.6364H22.6362H22.636H22.6358H22.6355H22.6353H22.6351H22.6349H22.6347H22.6345H22.6343H22.6341H22.6339H22.6337H22.6335H22.6333H22.633H22.6328H22.6326H22.6324H22.6322H22.632H22.6318H22.6316H22.6314H22.6312H22.631H22.6307H22.6305H22.6303H22.6301H22.6299H22.6297H22.6295H22.6293H22.6291H22.6288H22.6286H22.6284H22.6282H22.628H22.6278H22.6276H22.6273H22.6271H22.6269H22.6267H22.6265H22.6263H22.6261H22.6258H22.6256H22.6254H22.6252H22.625H22.6248H22.6245H22.6243H22.6241H22.6239H22.6237H22.6234H22.6232H22.623H22.6228H22.6225H22.6223H22.6221H22.6219H22.6217H22.6214H22.6212H22.621H22.6208H22.6205H22.6203H22.6201H22.6198H22.6196H22.6194H22.6192H22.6189H22.6187H22.6185H22.6182H22.618H22.6178H22.6175H22.6173H22.6171H22.6168H22.6166H22.6164H22.6161H22.6159H22.6157H22.6154H22.6152H22.6149H22.6147H22.6145H22.6142H22.614H22.6137H22.6135H22.6132H22.613H22.6128H22.6125H22.6123H22.612H22.6118H22.6115H22.6113H22.611H22.6108H22.6105H22.6103H22.61H22.6098H22.6095H22.6092H22.609H22.6087H22.6085H22.6082H22.6079H22.6077H22.6074H22.6072H22.6069H22.6066H22.6064H22.6061H22.6058H22.6056H22.6053H22.605H22.6048H22.6045H22.6042H22.6039H22.6037H22.6034H22.6031H22.6028H22.6026H22.6023H22.602H22.6017H22.6014H22.6012H22.6009H22.6006H22.6003H22.6H22.5997H22.5995H22.5992H22.5989H22.5986H22.5983H22.598H22.5977H22.5974H22.5971H22.5968H22.5965H22.5962H22.5959H22.5956H22.5953H22.595H22.5947H22.5944H22.5941H22.5938H22.5935H22.5932H22.5928H22.5925H22.5922H22.5919H22.5916H22.5913H22.5909H22.5906H22.5903H22.59H22.5897H22.5893H22.589H22.5887H22.5884H22.588H22.5877H22.5874H22.587H22.5867H22.5864H22.586H22.5857H22.5853H22.585H22.5847H22.5843H22.584H22.5836H22.5833H22.5829H22.5826H22.5822H22.5819H22.5815H22.5812H22.5808H22.5804H22.5801H22.5797H22.5793H22.579H22.5786H22.5783H22.5779H22.5775H22.5771H22.5768H22.5764H22.576H22.5756H22.5753H22.5749H22.5745H22.5741H22.5737H22.5733H22.573H22.5726H22.5722H22.5718H22.5714H22.571H22.5706H22.5702H22.5698H22.5694H22.569H22.5686H22.5682H22.5678H22.5674H22.567H22.5665H22.5661C20.2063 13.3485 18.2872 11.5634 18.0309 9.25728C18.0028 9.00407 17.7888 8.8125 17.534 8.8125H13.4233ZM9.8125 13.4233C9.8125 11.4314 11.4314 9.8125 13.4233 9.8125H17.1043C17.5742 12.259 19.6089 14.1441 22.1458 14.3329C22.137 14.4996 22.137 14.6604 22.137 14.8259V14.8407C22.137 17.4984 24.0223 19.7295 26.5312 20.2894V22.9205C26.5312 24.217 25.7881 25.4039 24.7276 26.0302C24.1521 26.3489 23.5283 26.5312 22.9205 26.5312H13.4233C12.7491 26.5312 12.1957 26.3514 11.6162 26.0302C10.5556 25.4039 9.8125 24.217 9.8125 22.9205V13.4233Z" fill="#2A303C"/>
</svg>
