<svg width="17" height="16" viewBox="0 0 17 16" fill="none" xmlns="http://www.w3.org/2000/svg">
<path fill-rule="evenodd" clip-rule="evenodd" d="M12.52 6.96441L13.01 7.47223V7.46228C13.32 7.77095 13.5 8.19912 13.5 8.63724V11.3854C13.5 11.8335 13.33 12.2418 13.01 12.5604L11.05 14.512C10.74 14.8207 10.31 14.9999 9.87 14.9999H7.11C6.66 14.9999 6.25 14.8307 5.93 14.512L3.99 12.5704C3.68 12.2617 3.5 11.8335 3.5 11.3954V8.64719C3.5 8.60604 3.50534 8.56754 3.5105 8.53032C3.51533 8.49551 3.52 8.46182 3.52 8.42813C3.63 7.11377 4.28 5.95873 5.26 5.1721C5.4693 6.46424 6.15386 7.6142 7.26 8.34848C6.42709 5.69454 7.44256 2.68921 9.65 1C9.87 3.33 10.93 5.42103 12.52 6.96441ZM9.65224 10.7003L9.79268 10.8456V10.8428C9.88154 10.9311 9.93313 11.0536 9.93313 11.179V11.9656C9.93313 12.0938 9.8844 12.2106 9.79268 12.3018L9.2309 12.8604C9.14204 12.9487 9.01879 13 8.89268 13H8.10159C7.97261 13 7.85509 12.9516 7.76337 12.8604L7.20732 12.3047C7.11846 12.2163 7.06687 12.0938 7.06687 11.9684V11.1819C7.06687 11.1701 7.0684 11.1591 7.06988 11.1484C7.07126 11.1385 7.0726 11.1288 7.0726 11.1192C7.10413 10.743 7.29044 10.4125 7.57133 10.1873C7.63132 10.5571 7.82754 10.8862 8.14458 11.0964C7.90585 10.3369 8.19691 9.47674 8.82962 8.9933C8.89268 9.66013 9.1965 10.2586 9.65224 10.7003Z" fill="#D02C1B"/>
</svg>
