<svg width="25" height="24" viewBox="0 0 25 24" fill="none" xmlns="http://www.w3.org/2000/svg">
<path fill-rule="evenodd" clip-rule="evenodd" d="M12.5 3C7.52944 3 3.5 7.02944 3.5 12C3.5 16.9706 7.52944 21 12.5 21C17.4706 21 21.5 16.9706 21.5 12C21.5 7.02944 17.4706 3 12.5 3ZM10.1953 4.99518L10.2263 4.40672C10.9465 4.19137 11.7097 4.0757 12.5 4.0757C13.4935 4.0757 14.4444 4.25854 15.3207 4.59241L15.2016 4.96938L12.8427 5.61809L10.1953 4.99518ZM9.82775 6.01377L7.19082 8.26481L7.59225 10.6333L10.256 11.2L12.5205 9.20186L12.2832 6.59152L9.82775 6.01377ZM13.2668 9.97793L10.999 11.979L11.4642 14.7123L14.5276 15.4235L16.4346 13.7345L15.9868 10.8846L13.2668 9.97793ZM5.43629 8.40482L6.13478 8.47134L6.54356 10.8831L5.49457 13.2896L4.69656 13.3863C4.61713 12.9362 4.5757 12.4729 4.5757 12C4.5757 10.7057 4.88601 9.48384 5.43629 8.40482ZM5.55764 14.3655L4.95789 14.4382C5.41828 15.8634 6.27139 17.112 7.38965 18.0565L8.07767 17.9533L7.85818 16.929L5.55764 14.3655ZM12.5598 19.0099L9.17129 17.923L8.95834 16.9292L11.077 15.7267L14.0112 16.4079L14.3592 18.032L12.5598 19.0099ZM15.2722 18.7601L13.1835 19.8952C14.3305 19.7972 15.4078 19.4549 16.3631 18.9205L15.2722 18.7601ZM19.3057 14.1958L17.4924 13.5365L17.0426 10.6738L18.3509 8.71131L19.9007 9.16126C20.2389 10.0426 20.4243 10.9996 20.4243 12C20.4243 12.4468 20.3873 12.8849 20.3163 13.3116L19.3057 14.1958ZM16.241 5.25026L16.3051 5.04733C17.515 5.71092 18.5329 6.68115 19.2541 7.85344L18.3301 7.58518L16.241 5.25026Z" fill="#29A329"/>
</svg>
