<svg width="17" height="17" viewBox="0 0 17 17" fill="none" xmlns="http://www.w3.org/2000/svg">
<g clip-path="url(#clip0_2015_1194)">
<path d="M0.5 2.5C0.5 1.39543 1.39543 0.5 2.5 0.5H14.5C15.6046 0.5 16.5 1.39543 16.5 2.5V14.5C16.5 15.6046 15.6046 16.5 14.5 16.5H2.5C1.39543 16.5 0.5 15.6046 0.5 14.5V2.5Z" fill="#00AFCA"/>
<path d="M8.61759 9.27296C10.0779 9.27296 11.2616 8.08918 11.2616 6.62891C11.2616 5.16864 10.0779 3.98486 8.61759 3.98486C7.15732 3.98486 5.97354 5.16864 5.97354 6.62891C5.97354 8.08918 7.15732 9.27296 8.61759 9.27296Z" fill="#FEC50C"/>
<path d="M8.6174 3.62704C8.77461 3.62295 8.83382 3.52495 8.83382 3.40653C8.83382 3.24932 8.6174 2.5 8.6174 2.5C8.6174 2.5 8.40097 3.24932 8.40097 3.40653C8.40301 3.52495 8.46018 3.62704 8.6174 3.62704Z" fill="#FEC50C"/>
<path d="M11.6226 6.62902C11.6226 6.78623 11.7206 6.84544 11.839 6.84544C11.9962 6.84544 12.7435 6.62902 12.7435 6.62902C12.7435 6.62902 11.9962 6.4126 11.839 6.4126C11.7206 6.41464 11.6226 6.47181 11.6226 6.62902Z" fill="#FEC50C"/>
<path d="M8.6174 9.63477C8.46018 9.63477 8.40097 9.73277 8.40097 9.85119C8.40097 10.0084 8.6174 10.7557 8.6174 10.7557C8.6174 10.7557 8.83382 10.0084 8.83382 9.85119C8.83382 9.73277 8.77461 9.63477 8.6174 9.63477Z" fill="#FEC50C"/>
<path d="M5.61813 6.62902C5.61813 6.47181 5.52013 6.4126 5.40171 6.4126C5.2445 6.4126 4.49722 6.62902 4.49722 6.62902C4.49722 6.62902 5.2445 6.84544 5.40171 6.84544C5.51401 6.84544 5.61813 6.78623 5.61813 6.62902Z" fill="#FEC50C"/>
<path d="M9.76935 3.85605C9.91431 3.91526 10.0082 3.84379 10.0531 3.73762C10.1124 3.59266 10.1981 2.81885 10.1981 2.81885C10.1981 2.81885 9.71014 3.42728 9.65297 3.57224C9.60805 3.67841 9.62438 3.79275 9.76935 3.85605Z" fill="#FEC50C"/>
<path d="M11.397 7.78009C11.3378 7.92505 11.4093 8.01897 11.5155 8.06389C11.6604 8.1231 12.4342 8.20885 12.4342 8.20885C12.4342 8.20885 11.8258 7.72088 11.6808 7.66371C11.5686 7.61879 11.4563 7.63513 11.397 7.78009Z" fill="#FEC50C"/>
<path d="M7.47293 9.40422C7.32796 9.34501 7.23404 9.41647 7.18912 9.52264C7.12991 9.6676 7.04416 10.4414 7.04416 10.4414C7.04416 10.4414 7.53214 9.83298 7.58931 9.68802C7.63422 9.57981 7.61789 9.46751 7.47293 9.40422Z" fill="#FEC50C"/>
<path d="M5.84492 5.47955C5.90413 5.33458 5.83267 5.24066 5.7265 5.19574C5.58153 5.13653 4.80771 5.05078 4.80771 5.05078C4.80771 5.05078 5.41615 5.53876 5.56112 5.59593C5.66933 5.64084 5.78571 5.62451 5.84492 5.47955Z" fill="#FEC50C"/>
<path d="M10.7428 4.50566C10.8572 4.61591 10.9674 4.58733 11.0491 4.50566C11.1594 4.39541 11.5371 3.71143 11.5371 3.71143C11.5371 3.71143 10.8531 4.08915 10.7428 4.1994C10.6612 4.28107 10.6326 4.39541 10.7428 4.50566Z" fill="#FEC50C"/>
<path d="M10.7428 8.75418C10.6326 8.86852 10.6612 8.97877 10.7428 9.06044C10.8531 9.1707 11.5371 9.54842 11.5371 9.54842C11.5371 9.54842 11.1594 8.86444 11.0491 8.75418C10.9674 8.67251 10.8531 8.63984 10.7428 8.75418Z" fill="#FEC50C"/>
<path d="M6.49675 8.75498C6.38241 8.64473 6.27216 8.67331 6.19049 8.75498C6.08023 8.86524 5.70251 9.54921 5.70251 9.54921C5.70251 9.54921 6.38649 9.17149 6.49675 9.06124C6.58046 8.97957 6.607 8.86524 6.49675 8.75498Z" fill="#FEC50C"/>
<path d="M6.49674 4.50566C6.607 4.39132 6.57841 4.28107 6.49674 4.1994C6.38649 4.08915 5.70251 3.71143 5.70251 3.71143C5.70251 3.71143 6.08023 4.39541 6.19049 4.50566C6.2742 4.58733 6.38445 4.61796 6.49674 4.50566Z" fill="#FEC50C"/>
<path d="M11.3963 5.47946C11.4595 5.62442 11.5739 5.64076 11.6801 5.59788C11.825 5.53867 12.4334 5.05273 12.4334 5.05273C12.4334 5.05273 11.6596 5.13849 11.5147 5.1977C11.4044 5.24262 11.333 5.33245 11.3963 5.47946Z" fill="#FEC50C"/>
<path d="M9.76877 9.40422C9.6238 9.46751 9.60747 9.58185 9.65035 9.68802C9.70956 9.83298 10.1955 10.4414 10.1955 10.4414C10.1955 10.4414 10.1097 9.6676 10.0505 9.52264C10.0056 9.41647 9.91373 9.34501 9.76877 9.40422Z" fill="#FEC50C"/>
<path d="M5.84491 7.78076C5.78162 7.6358 5.66728 7.61946 5.56111 7.66234C5.41615 7.72155 4.80771 8.20748 4.80771 8.20748C4.80771 8.20748 5.58153 8.12173 5.72649 8.06252C5.83675 8.0176 5.90412 7.92573 5.84491 7.78076Z" fill="#FEC50C"/>
<path d="M7.47201 3.85605C7.61698 3.79275 7.63331 3.67841 7.59044 3.57224C7.53123 3.42728 7.04529 2.81885 7.04529 2.81885C7.04529 2.81885 7.13104 3.59266 7.19025 3.73762C7.23109 3.84379 7.32501 3.91526 7.47201 3.85605Z" fill="#FEC50C"/>
<path d="M9.20826 3.68271C9.36139 3.70925 9.44102 3.62758 9.46347 3.50916C9.4941 3.35603 9.42877 2.57812 9.42877 2.57812C9.42877 2.57812 9.07147 3.27027 9.04084 3.4234C9.01634 3.54182 9.05105 3.65208 9.20826 3.68271Z" fill="#FEC50C"/>
<path d="M11.5644 7.21522C11.5379 7.36835 11.6195 7.44798 11.738 7.47044C11.8911 7.50106 12.669 7.43573 12.669 7.43573C12.669 7.43573 11.9768 7.07842 11.8237 7.0478C11.7073 7.0233 11.5971 7.06209 11.5644 7.21522Z" fill="#FEC50C"/>
<path d="M8.03325 9.57534C7.88012 9.54879 7.8005 9.63046 7.77804 9.74888C7.74741 9.90201 7.81275 10.6799 7.81275 10.6799C7.81275 10.6799 8.17004 9.98777 8.20066 9.83464C8.22516 9.71826 8.18637 9.608 8.03325 9.57534Z" fill="#FEC50C"/>
<path d="M5.67535 6.04513C5.70189 5.892 5.62022 5.81237 5.5018 5.78991C5.34867 5.75928 4.57077 5.82462 4.57077 5.82462C4.57077 5.82462 5.26292 6.18192 5.41605 6.21255C5.53447 6.23705 5.64473 6.19826 5.67535 6.04513Z" fill="#FEC50C"/>
<path d="M10.2881 4.13238C10.4208 4.21813 10.5229 4.16709 10.5902 4.06909C10.676 3.94046 10.9128 3.19727 10.9128 3.19727C10.9128 3.19727 10.3167 3.69953 10.2289 3.8302C10.1676 3.93229 10.1594 4.04459 10.2881 4.13238Z" fill="#FEC50C"/>
<path d="M11.1171 8.29898C11.0314 8.43169 11.0824 8.53378 11.1804 8.60116C11.3091 8.68691 12.0523 8.92375 12.0523 8.92375C12.0523 8.92375 11.55 8.32756 11.4193 8.23977C11.3213 8.17443 11.2029 8.16626 11.1171 8.29898Z" fill="#FEC50C"/>
<path d="M6.95353 9.1281C6.82082 9.04235 6.71874 9.09339 6.65136 9.19139C6.56561 9.32002 6.32877 10.0632 6.32877 10.0632C6.32877 10.0632 6.92495 9.56095 7.01275 9.43028C7.074 9.32819 7.08216 9.21385 6.95353 9.1281Z" fill="#FEC50C"/>
<path d="M6.12511 4.96169C6.21086 4.82897 6.15982 4.72689 6.06182 4.65951C5.93319 4.57376 5.19 4.33691 5.19 4.33691C5.19 4.33691 5.69227 4.9331 5.82294 5.0209C5.92094 5.08623 6.03323 5.0944 6.12511 4.96169Z" fill="#FEC50C"/>
<path d="M11.1171 4.96169C11.207 5.09032 11.3213 5.08827 11.4193 5.0209C11.548 4.93514 12.0523 4.33691 12.0523 4.33691C12.0523 4.33691 11.3091 4.57171 11.1804 4.65951C11.0824 4.72484 11.0314 4.83101 11.1171 4.96169Z" fill="#FEC50C"/>
<path d="M10.2882 9.12847C10.1595 9.21831 10.1616 9.33265 10.229 9.43065C10.3147 9.55928 10.913 10.0636 10.913 10.0636C10.913 10.0636 10.6781 9.3204 10.5904 9.19177C10.525 9.08968 10.4188 9.03864 10.2882 9.12847Z" fill="#FEC50C"/>
<path d="M6.12511 8.29903C6.03528 8.1704 5.92094 8.17245 5.82294 8.23982C5.69431 8.32557 5.19 8.92379 5.19 8.92379C5.19 8.92379 5.93319 8.689 6.06182 8.6012C6.15982 8.53587 6.21086 8.4297 6.12511 8.29903Z" fill="#FEC50C"/>
<path d="M6.95354 4.13238C7.08217 4.04255 7.08013 3.92821 7.01276 3.8302C6.927 3.70157 6.32877 3.19727 6.32877 3.19727C6.32877 3.19727 6.56357 3.94046 6.65136 4.06909C6.7167 4.17117 6.81879 4.22222 6.95354 4.13238Z" fill="#FEC50C"/>
<path d="M11.5643 6.04483C11.5949 6.19796 11.7052 6.23675 11.8195 6.21429C11.9727 6.18366 12.6648 5.82636 12.6648 5.82636C12.6648 5.82636 11.8869 5.75899 11.7338 5.79165C11.6194 5.81207 11.5337 5.8917 11.5643 6.04483Z" fill="#FEC50C"/>
<path d="M9.20785 9.5756C9.05472 9.60622 9.01592 9.71648 9.03838 9.83082C9.06901 9.98395 9.42632 10.6761 9.42632 10.6761C9.42632 10.6761 9.4937 9.89819 9.46103 9.74506C9.43653 9.63072 9.36098 9.54497 9.20785 9.5756Z" fill="#FEC50C"/>
<path d="M5.6755 7.21539C5.64488 7.06226 5.53463 7.02346 5.42029 7.04592C5.26716 7.07655 4.57501 7.43385 4.57501 7.43385C4.57501 7.43385 5.35291 7.50123 5.50604 7.46856C5.61834 7.44814 5.70409 7.36851 5.6755 7.21539Z" fill="#FEC50C"/>
<path d="M8.03427 3.68252C8.1874 3.6519 8.2262 3.54164 8.20374 3.42731C8.17311 3.27418 7.81581 2.58203 7.81581 2.58203C7.81581 2.58203 7.74843 3.35993 7.7811 3.51306C7.80151 3.6274 7.88114 3.71519 8.03427 3.68252Z" fill="#FEC50C"/>
<path d="M8.14784 12.3545C8.07638 12.3586 8.01105 12.3667 7.93959 12.3892C7.84975 12.4015 7.75787 12.4321 7.66804 12.4484L7.63333 12.4525L7.57003 12.4566C7.57412 12.4729 7.5782 12.4913 7.5782 12.5076C7.5782 12.528 7.5782 12.5423 7.57003 12.5587C7.56595 12.575 7.5537 12.5893 7.54349 12.5975C7.53124 12.6138 7.51695 12.624 7.50062 12.6322C7.48428 12.6403 7.46591 12.6444 7.44957 12.6444C7.42916 12.6444 7.41486 12.6444 7.39445 12.6362C7.37403 12.6322 7.35974 12.6199 7.3434 12.6056C7.32299 12.6097 7.30461 12.6138 7.28828 12.6179C7.26786 12.6179 7.25357 12.6179 7.23723 12.6179C7.21682 12.6138 7.19844 12.6056 7.18211 12.5975C7.16169 12.5893 7.1474 12.5811 7.13106 12.5709C7.06369 12.6097 6.99019 12.6485 6.94935 12.7159C6.92485 12.7465 6.92281 12.7833 6.91873 12.822C6.91464 12.869 6.92689 12.916 6.94527 12.9588C6.95344 12.9711 6.95752 12.916 6.97998 12.9037C7.01877 12.8731 7.06165 12.8486 7.10861 12.8363C7.1474 12.8159 7.14332 12.8363 7.12902 12.867C7.12494 12.8833 7.10248 12.9445 7.13311 12.9139C7.26582 12.8547 7.41282 12.8425 7.55778 12.8323C7.76604 12.8118 7.9743 12.8057 8.18255 12.8057C8.37856 12.8098 8.57456 12.8098 8.77261 12.818C8.86653 12.822 8.96045 12.8425 9.05232 12.8261C9.07683 12.822 9.11153 12.818 9.12378 12.8057C9.08091 12.7812 9.03395 12.7812 8.98699 12.7751H8.61131C8.50514 12.7628 8.39897 12.7628 8.30097 12.724C8.27443 12.7118 8.24993 12.6893 8.22543 12.7159C8.18663 12.7281 8.14784 12.7404 8.10701 12.7404C8.03555 12.7445 7.97021 12.7322 7.90692 12.7057C7.95388 12.6424 8.009 12.5872 8.05596 12.528C8.01717 12.5199 7.97838 12.5117 7.93346 12.5035C8.01309 12.4647 8.08047 12.4096 8.14784 12.3545Z" fill="#FEC50C"/>
<path d="M11.2067 13.0339C11.0658 13.1196 10.9555 12.9665 10.8371 12.9236C10.7514 12.9706 10.7432 13.1237 10.6636 13.1992C10.5696 13.3095 10.4512 13.1686 10.4594 13.0624C10.345 13.1564 10.2858 13.3769 10.1062 13.3462C10.0204 13.2748 9.95303 13.1257 9.88566 13.2952C9.83053 13.3769 9.68557 13.4953 9.61002 13.3707C9.58552 13.2605 9.53243 13.1319 9.47322 13.3034C9.43035 13.43 9.29968 13.5198 9.17105 13.4647C9.09959 13.4055 9.22617 13.1931 9.14042 13.2094C9.00771 13.2952 8.92808 13.5157 8.74432 13.4994C8.67286 13.4177 8.7872 13.2789 8.70962 13.189C8.6157 13.3115 8.51361 13.483 8.34823 13.4994C8.27064 13.4361 8.35231 13.2523 8.30127 13.2278C8.13589 13.3258 7.9603 13.5075 7.75204 13.4483C7.83371 13.138 8.17264 13.0277 8.45848 13.0053C8.95054 12.9461 9.4671 13.0563 9.94282 12.8787C10.0204 12.8317 10.2062 12.7643 10.1388 12.6582C10.0796 12.5724 10.292 12.6071 10.3124 12.505C10.3001 12.3785 10.4104 12.3948 10.5166 12.3825C10.9964 12.3621 11.468 12.4601 11.9458 12.4805C11.9805 12.7133 11.7212 12.8766 11.517 12.8072C11.419 12.8236 11.27 12.5786 11.2965 12.7562C11.2781 12.8481 11.2945 12.9706 11.2067 13.0339ZM7.13339 12.5581C7.24365 12.6602 7.32123 12.5377 7.42332 12.4948C7.76837 12.3764 8.07463 12.1641 8.37477 11.9558C8.55648 11.8068 8.71166 11.6108 8.95667 11.5638C9.43239 11.4188 9.93466 11.4372 10.4104 11.3045C10.7718 10.8104 11.3884 10.6328 11.9029 10.3469C12.0172 10.3122 12.0642 10.2183 12.0989 10.1121C12.2949 9.80179 12.5624 9.52615 12.8809 9.33831C13.0299 9.25664 13.2116 9.20968 13.3791 9.24848C13.3668 9.45265 13.2504 9.63028 13.1116 9.77116C13.2259 9.76708 13.3239 9.69562 13.4424 9.6997C13.4812 9.90796 13.2586 10.0182 13.1402 10.1468C13.2076 10.1632 13.4628 10.1815 13.3219 10.2489C13.1443 10.3714 12.9442 10.4572 12.7788 10.5981C12.9278 10.6246 12.9483 10.6573 12.7951 10.7124C12.7135 10.7675 12.5522 10.7879 12.5358 10.8962C12.6502 10.9676 12.4848 11.033 12.4174 11.0575C12.2949 11.084 12.1663 11.1391 12.3276 11.2351C12.2643 11.329 12.1357 11.3494 12.0254 11.3372C12.056 11.4433 12.103 11.5618 11.9703 11.6087C11.664 11.8415 11.3026 12.0089 10.9167 12.0477C11.4006 12.0824 11.8947 11.9967 12.3072 11.7333C12.3623 11.67 12.644 11.6006 12.4889 11.5454C12.4133 11.5148 12.2541 11.4781 12.2418 11.4229C12.4664 11.2861 12.7441 11.3331 12.985 11.2535C12.9932 11.1759 12.8033 11.1983 12.7339 11.1779C12.5644 11.1616 12.5767 11.1228 12.738 11.1065C12.9421 11.0513 13.1749 11.0391 13.3464 10.9105C13.2055 10.8431 13.0279 10.9023 12.8788 10.8512C13.1341 10.741 13.4322 10.7287 13.6608 10.5613C13.7629 10.447 13.5281 10.4837 13.4607 10.4858C13.3199 10.5103 13.2566 10.4429 13.4138 10.3837C13.6853 10.1836 14.0304 10.0529 14.2223 9.76299C14.2693 9.69562 14.3285 9.49961 14.1835 9.57107C13.9957 9.63436 13.8262 9.85079 13.6098 9.78341C14.0386 9.45265 14.4428 9.07697 14.7327 8.61758C14.7491 8.48487 14.5408 8.47261 14.4857 8.5747C14.2101 8.83809 13.963 9.15251 13.6139 9.31789C13.9508 8.99122 14.2264 8.61145 14.4694 8.20923C14.5204 8.09081 14.6613 7.94993 14.5878 7.81722C14.4653 7.71513 14.3121 7.80905 14.2509 7.93155C14.0385 8.21127 13.8773 8.53591 13.6037 8.7605C13.8425 8.30111 14.0916 7.81313 14.0978 7.28841C14.0978 7.17815 14.0733 7.02094 13.9283 7.04136C13.8099 7.06177 13.8385 7.23736 13.7915 7.3272C13.6853 7.68859 13.6343 8.07652 13.4179 8.39503C13.4648 8.10102 13.5506 7.79476 13.4893 7.49871C13.4587 7.36599 13.2464 7.42316 13.2729 7.55383C13.0177 8.84625 12.1499 9.97738 11.0147 10.6328C10.4961 10.9268 9.91424 11.1167 9.32622 11.2024C9.16901 11.2371 8.99546 11.2188 8.84233 11.2698C8.47277 11.5536 8.25227 12.0232 7.78471 12.1743C7.57645 12.2764 7.3049 12.3009 7.15585 12.4928C7.13748 12.4989 7.13339 12.5295 7.13339 12.5581Z" fill="#FEC50C"/>
<path d="M8.52815 11.2455C8.45669 11.3721 8.4179 11.513 8.33214 11.6273C8.06467 11.3844 7.68083 11.3925 7.3419 11.3762C7.06218 11.3599 6.76001 11.3374 6.54358 11.1373C6.31491 10.9536 6.13115 10.7085 5.88002 10.5595C5.64726 10.4962 5.41654 10.4186 5.23279 10.2614C4.83669 9.93881 4.60802 9.45695 4.22009 9.12211C4.14454 9.04657 4.05879 8.99348 3.97712 8.93019C3.89953 8.9506 3.93424 9.11803 3.83624 9.03227C3.7852 8.99348 3.65248 8.99348 3.64023 9.04452C3.75865 9.20174 3.87503 9.37937 3.89545 9.57946C3.81378 9.58763 3.67086 9.56313 3.63207 9.59171C3.73824 9.75301 3.87503 9.89389 4.03225 10.0082C3.9567 10.0205 3.80766 10.0123 3.78111 10.0429C3.93833 10.1695 4.10371 10.2982 4.30788 10.3288C4.35076 10.3839 4.24867 10.4901 4.33238 10.537C4.38343 10.5575 4.54881 10.5922 4.43447 10.6473C4.35688 10.6983 4.38751 10.8249 4.48551 10.8208C4.54881 10.8515 4.68969 10.8596 4.70194 10.9148C4.64681 10.9699 4.47326 11.0413 4.62027 11.0924C4.75706 11.17 4.91428 11.219 5.07557 11.2251C4.99799 11.2925 4.89794 11.3313 4.81627 11.3946C5.18174 11.6069 5.58601 11.7478 5.9821 11.8846C6.13932 11.9397 6.30062 11.9867 6.466 12.0173C5.98619 11.9908 5.52271 11.8478 5.08782 11.6559C4.85915 11.5579 4.6366 11.4599 4.40384 11.3762C4.50593 11.3251 4.62435 11.3088 4.73052 11.2659C4.51001 11.2231 4.27521 11.2067 4.08329 11.0883C4.11392 11.0373 4.22417 11.0332 4.28746 11.0066C4.40588 10.9801 4.4753 10.9433 4.31196 10.9352C4.14658 10.8923 3.95874 10.9107 3.81378 10.8086C3.82195 10.7494 3.97508 10.7698 4.03837 10.7453C4.11596 10.733 4.20375 10.7208 4.26705 10.6677C4.01183 10.5615 3.67698 10.6371 3.47689 10.4125C3.42993 10.3267 3.61777 10.3962 3.6729 10.3819C3.8097 10.3819 3.9567 10.4247 4.08942 10.3696C3.71578 10.2042 3.31968 10.0552 3.03588 9.75301C3.00525 9.70605 2.90929 9.57129 2.98484 9.557C3.20534 9.58354 3.36664 9.82855 3.60144 9.78976C3.63207 9.74688 3.46464 9.6795 3.41973 9.61621C3.07467 9.3222 2.73983 8.99961 2.50094 8.61372C2.48461 8.48509 2.6847 8.46467 2.73983 8.56676C3.00321 8.82197 3.24209 9.11598 3.56877 9.28953C3.68719 9.34466 3.50139 9.22216 3.47894 9.17928C3.17676 8.82606 2.88479 8.4565 2.67858 8.03999C2.63978 7.96444 2.57649 7.83173 2.69083 7.78885C2.80516 7.73373 2.9195 7.80927 2.97463 7.90727C3.19922 8.19108 3.36052 8.52388 3.63819 8.75664C3.40339 8.29725 3.15022 7.81336 3.14409 7.28659C3.14818 7.1845 3.15634 7.03137 3.29314 7.03545C3.41156 7.01912 3.39114 7.16408 3.42993 7.23963C3.54427 7.62756 3.59531 8.04815 3.82603 8.39117C3.77499 8.10532 3.69944 7.80519 3.75049 7.51526C3.76274 7.42134 3.86891 7.38867 3.93833 7.44788C3.99754 7.58876 4.00979 7.75823 4.06083 7.90727C4.35484 8.91998 5.0184 9.80813 5.88818 10.4064C6.59871 10.8943 7.44807 11.1884 8.31173 11.2394C8.37094 11.2374 8.45056 11.2414 8.52815 11.2455Z" fill="#FEC50C"/>
<path d="M7.43158 12.5842C7.45752 12.5842 7.47854 12.5631 7.47854 12.5372C7.47854 12.5113 7.45752 12.4902 7.43158 12.4902C7.40564 12.4902 7.38461 12.5113 7.38461 12.5372C7.38461 12.5631 7.40564 12.5842 7.43158 12.5842Z" fill="#FEC50C"/>
<path d="M7.42794 12.554C7.43921 12.554 7.44834 12.5449 7.44834 12.5336C7.44834 12.5223 7.43921 12.5132 7.42794 12.5132C7.41667 12.5132 7.40753 12.5223 7.40753 12.5336C7.40753 12.5449 7.41667 12.554 7.42794 12.554Z" fill="#FEC50C" stroke="#00AFCA" stroke-width="0.1905" stroke-miterlimit="2"/>
</g>
<defs>
<clipPath id="clip0_2015_1194">
<rect width="16" height="16" fill="white" transform="translate(0.5 0.5)"/>
</clipPath>
</defs>
</svg>
