<svg width="24" height="24" viewBox="0 0 24 24" fill="none" xmlns="http://www.w3.org/2000/svg">
<path fill-rule="evenodd" clip-rule="evenodd" d="M11.8834 4.5C17.2826 4.5 21.002 6.60547 21.002 8.44727C21.002 9.36865 19.9221 10.4209 18.2424 11.2104C16.6826 11.8687 14.523 12.3945 12.0034 12.3945C9.48378 12.3945 7.32411 11.8687 5.7643 11.2104C3.96461 10.4209 3.00477 9.36865 3.00477 8.44727C2.88478 6.60547 6.60426 4.5 11.8834 4.5ZM12.002 13.6411C15.0809 13.6411 17.6862 12.9897 19.5809 11.9482C20.0546 11.688 20.6467 11.2974 21.002 10.9067V14.813C20.8836 17.417 16.8572 19.5 12.002 19.5C7.14674 19.5 3.23878 17.417 3.00197 14.813L3.00197 10.9067C3.20961 11.1353 3.49818 11.3638 3.79677 11.5659C4.00892 11.7095 4.22621 11.8403 4.42299 11.9482C6.43617 12.9897 9.0414 13.6411 12.002 13.6411Z" fill="#8397AD"/>
</svg>
