<svg width="71" height="60" viewBox="0 0 71 60" fill="none" xmlns="http://www.w3.org/2000/svg">
<path d="M69.7672 9.70575C69.871 10.1944 69.5993 10.6857 69.1262 10.8459C67.1189 11.5256 65.1607 12.0494 63.3862 12.9274C60.1044 14.5376 58.1343 17.9513 58.1893 21.4724C58.1973 21.9809 58.6309 22.3631 59.1394 22.3631C61.9253 22.3631 64.7398 22.3631 67.6047 22.3631C68.157 22.3631 68.6047 22.8108 68.6047 23.3631C68.6047 32.6216 68.6047 41.7778 68.6047 51.0001C68.6047 51.5524 68.157 52.0001 67.6048 52.0001C59.0823 52.0001 50.5561 52.0001 41.9324 52.0001C41.3355 52.0001 40.8516 51.5163 40.8516 50.9194C40.8516 43.3542 40.8516 35.8307 40.8516 28.2655C40.8516 24.1089 41.326 20.0353 42.6306 16.0865C44.6864 9.76835 48.7585 5.40385 54.6096 2.90984C58.5393 1.23375 62.6429 0.544564 66.9203 0.25959C67.4119 0.226842 67.8501 0.563224 67.952 1.0452C68.5748 3.99225 69.1722 6.90338 69.7672 9.70575Z" fill="#6C7993" fill-opacity="0.2"/>
<path d="M2.00005 52C1.44777 52 1 51.5522 1 50.9999C1 47.1475 1 43.3627 1 39.6131C1.03953 34.4588 0.920931 29.3045 1.23721 24.1503C1.59302 18.1647 3.293 12.5947 7.36505 8.10551C10.6859 4.44764 14.8766 2.41087 19.5021 1.3717C21.9641 0.817007 24.4575 0.525503 26.982 0.14597C27.5094 0.0666967 28.0097 0.409967 28.1192 0.931835C28.7623 3.99627 29.3559 6.92819 29.9446 9.82148C30.0519 10.3486 29.7229 10.8656 29.199 10.9876C27.996 11.2677 26.8328 11.533 25.6695 11.9296C22.1509 13.1351 19.5021 15.3381 18.5928 19.3285C18.4624 19.9593 18.3836 20.6082 18.311 21.299C18.249 21.8896 18.715 22.4045 19.3088 22.4045C22.1687 22.4045 24.9428 22.4045 27.7532 22.4045C28.3055 22.4045 28.7532 22.8522 28.7532 23.4045C28.7532 32.6616 28.7532 41.8152 28.7532 50.9999C28.7532 51.5522 28.3055 52 27.7532 52C19.1713 52 10.6501 52 2.00005 52Z" fill="#6C7993" fill-opacity="0.2"/>
</svg>
