<svg width="16" height="16" viewBox="0 0 16 16" fill="none" xmlns="http://www.w3.org/2000/svg">
<path fill-rule="evenodd" clip-rule="evenodd" d="M1.80075 8.30951L2.21425 8.63602C2.21425 8.63602 2.28095 8.66933 2.32096 8.66933H2.50104C2.59441 8.66933 2.66777 8.59604 2.66777 8.50941V6.61703C2.66777 6.09063 2.8812 5.57755 3.25468 5.2044L5.20883 3.25205C5.58232 2.8789 6.09586 2.66567 6.62275 2.66567H9.38389C9.91745 2.66567 10.4243 2.8789 10.7978 3.25205L12.752 5.2044C13.0854 5.53757 13.2788 5.97735 13.3189 6.43712H14.6728C14.6728 5.71185 14.4639 5.02902 13.9391 4.50475L11.4981 2.06597C11.0312 1.59954 10.391 1.33301 9.73071 1.33301H6.27594C5.61566 1.33301 4.9754 1.59954 4.50854 2.06597L2.06752 4.50475C1.60066 4.97119 1.33389 5.61087 1.33389 6.27053V6.41713H0.160066C0.0733638 6.41713 0 6.49043 0 6.57705V6.81693C0 6.86357 0.0200083 6.91022 0.0600249 6.94353L1.80075 8.30951Z" fill="#A7AFBE"/>
<path fill-rule="evenodd" clip-rule="evenodd" d="M15.9466 9.50226L13.7924 7.80977C13.7924 7.80977 13.7257 7.77646 13.6857 7.77646H13.5056C13.4123 7.77646 13.3389 7.84975 13.3389 7.93638V9.38232C13.3389 9.91539 13.1255 10.4218 12.752 10.7949L10.7978 12.7473C10.4244 13.1204 9.91081 13.3337 9.38392 13.3337H6.62278C6.08922 13.3337 5.58234 13.1204 5.20885 12.7473L3.25471 10.7949C3.03462 10.5751 2.88122 10.3019 2.78118 10.0087H1.36059C1.42729 10.5684 1.66072 11.0948 2.06755 11.4946L4.50856 13.9334C4.97542 14.3998 5.61569 14.6663 6.27596 14.6663H9.73073C10.391 14.6663 11.0313 14.3998 11.4981 13.9334L13.9391 11.4946C14.3326 11.1015 14.5727 10.5817 14.6394 10.0287H15.8399C15.9266 10.0287 16 9.95537 16 9.86874V9.62886C16 9.58222 15.98 9.53558 15.94 9.50226H15.9466Z" fill="#A7AFBE"/>
<path fill-rule="evenodd" clip-rule="evenodd" d="M9.12562 3.66517C9.55677 3.66517 9.97027 3.83629 10.2751 4.14089L11.8623 5.7266C12.1672 6.03119 12.3385 6.44431 12.3385 6.87507V9.1176C12.3385 9.54837 12.1672 9.96148 11.8623 10.2661L10.2751 11.8518C9.97027 12.1564 9.55677 12.3275 9.12562 12.3275H6.88103C6.44987 12.3275 6.03638 12.1564 5.7315 11.8518L4.14434 10.2661C3.83947 9.96148 3.66819 9.54837 3.66819 9.11761V6.87507C3.66819 6.44431 3.83947 6.03119 4.14434 5.7266L5.7315 4.14089C6.03638 3.83629 6.44987 3.66517 6.88103 3.66517H9.12562ZM8.00332 5.95107C8.26935 5.95107 8.485 6.16652 8.485 6.43231V7.91731L9.78897 9.22008C9.97707 9.40802 9.97707 9.71272 9.78897 9.90066C9.60086 10.0886 9.29587 10.0886 9.10777 9.90066L7.66272 8.45694C7.57239 8.36669 7.52164 8.24428 7.52164 8.11665V6.43231C7.52164 6.16652 7.7373 5.95107 8.00332 5.95107Z" fill="#A7AFBE"/>
</svg>
