<svg width="16" height="17" viewBox="0 0 16 17" fill="none" xmlns="http://www.w3.org/2000/svg">
<g clip-path="url(#clip0_2001_2688)">
<path d="M6.56191 7.01266V6.46624C6.36485 6.44061 6.16484 6.4248 5.96077 6.4248C3.50122 6.4248 1.5 8.32919 1.5 10.6701C1.5 12.1063 2.25392 13.3772 3.40454 14.1456C2.66206 13.3871 2.20668 12.3711 2.20668 11.2551C2.20668 8.94794 4.15107 7.06639 6.56228 7.01266H6.56191Z" fill="#25F4EE"/>
<path d="M6.66713 13.1939C7.76461 13.1939 8.65987 12.363 8.70046 11.3281L8.70452 2.0854H10.4788C10.4419 1.89541 10.4216 1.70017 10.4216 1.5H7.9982L7.99414 10.7427C7.95355 11.7776 7.0583 12.6085 5.96082 12.6085C5.61984 12.6085 5.29842 12.5274 5.01575 12.3858C5.38588 12.8743 5.98739 13.1939 6.66713 13.1939Z" fill="#25F4EE"/>
<path d="M13.7933 5.22239V4.70863C13.1165 4.70863 12.4858 4.51725 11.957 4.1889C12.4279 4.70336 13.0674 5.07455 13.7933 5.22239Z" fill="#25F4EE"/>
<path d="M11.9574 4.18887C11.4415 3.62524 11.1282 2.88955 11.1282 2.08502H10.4791C10.65 2.96364 11.198 3.7176 11.9574 4.18887Z" fill="#FE2C55"/>
<path d="M5.96072 8.73125C4.83741 8.73125 3.92334 9.60109 3.92334 10.67C3.92334 11.4145 4.36728 12.0614 5.01565 12.3859C4.77394 12.067 4.63002 11.6772 4.63002 11.2551C4.63002 10.1861 5.5441 9.3163 6.66741 9.3163C6.87701 9.3163 7.07813 9.34931 7.26855 9.40584V7.05126C7.07149 7.02563 6.87148 7.00983 6.66741 7.00983C6.63198 7.00983 6.59729 7.01158 6.56223 7.01229V8.82045C6.37182 8.76391 6.1707 8.7309 5.96109 8.7309L5.96072 8.73125Z" fill="#FE2C55"/>
<path d="M13.7933 5.22235V7.01471C12.5368 7.01471 11.3722 6.63229 10.4215 5.98298V10.67C10.4215 13.0109 8.42033 14.9149 5.96078 14.9149C5.01017 14.9149 4.12894 14.6298 3.40417 14.1455C4.21898 14.9781 5.37993 15.5 6.66709 15.5C9.12701 15.5 11.1279 13.5956 11.1279 11.2551V6.56838C12.0785 7.21769 13.2431 7.60011 14.4996 7.60011V5.29364C14.2572 5.29364 14.021 5.26871 13.7933 5.22235Z" fill="#FE2C55"/>
<path d="M10.4215 10.67V5.98298C11.3721 6.63229 12.5368 7.01471 13.7933 7.01471V5.22235C13.0674 5.07451 12.4279 4.70368 11.957 4.18887C11.1976 3.7176 10.6496 2.96399 10.4787 2.08502H8.70445L8.70039 11.3278C8.6598 12.3626 7.76455 13.1935 6.66707 13.1935C5.98733 13.1935 5.38582 12.8739 5.01568 12.3855C4.36731 12.0606 3.92337 11.4138 3.92337 10.6697C3.92337 9.60071 4.83744 8.73087 5.96076 8.73087C6.17036 8.73087 6.37148 8.76388 6.5619 8.82042V7.01225C4.15069 7.06598 2.2063 8.94754 2.2063 11.2547C2.2063 12.3707 2.66168 13.3866 3.40415 14.1452C4.12855 14.6291 5.01015 14.9146 5.96076 14.9146C8.4203 14.9146 10.4215 13.0102 10.4215 10.6697V10.67Z" fill="#2A303C"/>
</g>
<defs>
<clipPath id="clip0_2001_2688">
<rect width="13" height="14" fill="white" transform="translate(1.5 1.5)"/>
</clipPath>
</defs>
</svg>
