<svg width="16" height="17" viewBox="0 0 16 17" fill="none" xmlns="http://www.w3.org/2000/svg">
<path d="M0.5 8.2C0.5 4.80589 0.5 3.10884 1.55442 2.05442C2.60884 1 4.30589 1 7.7 1H8.3C11.6941 1 13.3912 1 14.4456 2.05442C15.5 3.10884 15.5 4.80589 15.5 8.2V8.8C15.5 12.1941 15.5 13.8912 14.4456 14.9456C13.3912 16 11.6941 16 8.3 16H7.7C4.30589 16 2.60884 16 1.55442 14.9456C0.5 13.8912 0.5 12.1941 0.5 8.8V8.2Z" fill="#0077FF"/>
<path d="M8.46054 11.7813C4.93716 11.7813 2.92749 9.49381 2.84375 5.6875H4.60867C4.66664 8.48123 5.96775 9.66459 6.99834 9.90859V5.6875H8.66026V8.09692C9.67797 7.99323 10.7471 6.89527 11.1078 5.6875H12.7697C12.4927 7.17587 11.3333 8.27383 10.5088 8.72521C11.3333 9.0912 12.6538 10.0489 13.1562 11.7813H11.3269C10.9339 10.6223 9.95495 9.7256 8.66026 9.60359V11.7813H8.46054Z" fill="white"/>
</svg>
