<svg width="148" height="24" viewBox="0 0 148 24" fill="none" xmlns="http://www.w3.org/2000/svg">
<path d="M6.94518 6.22138C6.8321 6.1382 6.6702 6.18213 6.61574 6.31078L5.13504 9.80816C4.86118 10.455 5.01171 11.2017 5.51538 11.6949L8.1559 14.2802L5.59309 14.2747C5.43756 14.2743 5.33221 14.4314 5.39281 14.5732L6.98195 18.2925C7.17612 18.747 7.55818 19.0968 8.03086 19.2531L15.5764 21.747C15.933 21.8649 16.3187 21.8649 16.6754 21.747L24.2209 19.2531C24.6936 19.0968 25.0756 18.747 25.2698 18.2925L26.8589 14.5732C26.9195 14.4314 26.8142 14.2743 26.6586 14.2747L24.0958 14.2802L26.7364 11.6949C27.24 11.2017 27.3906 10.455 27.1167 9.80816L25.636 6.31078C25.5815 6.18213 25.4196 6.1382 25.3066 6.22138L23.5313 7.52723L23.5148 5.30158C23.5098 4.61466 23.0921 3.99672 22.4528 3.73014L18.7391 2.18161C18.5961 2.12199 18.438 2.22597 18.438 2.37962V3.83979C18.438 4.37474 18.6895 4.87919 19.1185 5.20441L22.9481 8.10824V14.2802L16.1259 20.1542L9.3036 14.2802V8.10824L13.1333 5.20441C13.5622 4.87919 13.8137 4.37474 13.8137 3.83979V2.37962C13.8137 2.22597 13.6556 2.12199 13.5126 2.18161L9.7989 3.73014C9.15959 3.99672 8.74197 4.61466 8.73689 5.30158L8.72044 7.52723L6.94518 6.22138Z" fill="#E61919"/>
<path fill-rule="evenodd" clip-rule="evenodd" d="M42.2075 17.9128C47.7443 17.9128 49.4995 15.3174 49.4995 12.1158C49.4995 8.91424 47.7443 6.31885 42.2075 6.31885C36.6707 6.31885 34.7976 8.91424 34.7976 12.1158C34.7976 15.3174 36.6707 17.9128 42.2075 17.9128ZM42.1795 15.1724C45.0874 15.1724 45.6918 13.8039 45.6918 12.1158C45.6918 10.4277 45.0874 9.05924 42.1795 9.05924C39.2717 9.05924 38.6053 10.4277 38.6053 12.1158C38.6053 13.8039 39.2717 15.1724 42.1795 15.1724Z" fill="#E61919"/>
<path d="M63.1438 6.84585C63.1438 6.67121 63.2858 6.52965 63.4611 6.52965H66.6341C66.8094 6.52965 66.9515 6.67121 66.9515 6.84585V17.4912C66.9515 17.6658 66.8094 17.8074 66.6341 17.8074H63.4611C63.2858 17.8074 63.1438 17.6658 63.1438 17.4912V6.84585Z" fill="#E61919"/>
<path d="M69.5957 6.52965C69.4204 6.52965 69.2784 6.67121 69.2784 6.84585V17.4912C69.2784 17.6658 69.4204 17.8074 69.5957 17.8074H72.7688C72.944 17.8074 73.0861 17.6658 73.0861 17.4912V11.3331L76.1722 17.63C76.2254 17.7385 76.3361 17.8074 76.4573 17.8074H78.2862C78.4053 17.8074 78.5144 17.7409 78.5687 17.6352L81.8649 11.211V17.4912C81.8649 17.6658 82.007 17.8074 82.1822 17.8074H85.3553C85.5305 17.8074 85.6726 17.6658 85.6726 17.4912V6.84585C85.6726 6.67121 85.5305 6.52965 85.3553 6.52965H81.2134C81.094 6.52965 80.9847 6.59648 80.9306 6.70259L77.3697 13.6848L74.1233 6.71276C74.0713 6.60109 73.959 6.52965 73.8354 6.52965H69.5957Z" fill="#E61919"/>
<path d="M54.9995 6.84585C54.9995 6.67121 54.8575 6.52965 54.6822 6.52965H51.5091C51.3339 6.52965 51.1918 6.67121 51.1918 6.84585V17.4912C51.1918 17.6658 51.3339 17.8074 51.5091 17.8074H60.9677C61.1243 17.8074 61.2575 17.6935 61.2813 17.5393L61.6068 15.4313C61.6363 15.2398 61.4876 15.067 61.2931 15.067H54.9995V6.84585Z" fill="#E61919"/>
<path fill-rule="evenodd" clip-rule="evenodd" d="M88.5284 6.52965C88.3531 6.52965 88.2111 6.67121 88.2111 6.84585V17.4912C88.2111 17.6658 88.3531 17.8074 88.5284 17.8074H91.7015C91.8767 17.8074 92.0188 17.6658 92.0188 17.4912V14.3292H96.1438V14.329C96.1656 14.3292 96.1874 14.3292 96.2094 14.3292C99.9342 14.3292 101.115 12.5832 101.115 10.4294C101.115 8.27564 99.9342 6.52965 96.2094 6.52965C96.1874 6.52965 96.1656 6.52971 96.1438 6.52983V6.52965H88.5284ZM92.0188 9.27004V11.5888H96.1539C97.1087 11.5888 97.3072 11.0926 97.3072 10.4294C97.3072 9.76625 97.1087 9.27004 96.1539 9.27004H92.0188Z" fill="#E61919"/>
<path d="M130.836 6.52965C130.661 6.52965 130.519 6.67121 130.519 6.84585V8.74304C130.519 8.91767 130.661 9.05924 130.836 9.05924H134.961V17.4912C134.961 17.6658 135.103 17.8074 135.278 17.8074H138.451C138.627 17.8074 138.769 17.6658 138.769 17.4912V9.05924H142.519C142.674 9.05924 142.807 8.94749 142.832 8.79502L143.149 6.89783C143.182 6.7051 143.033 6.52965 142.837 6.52965H130.836Z" fill="#E61919"/>
<path fill-rule="evenodd" clip-rule="evenodd" d="M103.125 6.52965C102.949 6.52965 102.807 6.67122 102.807 6.84585V17.4912C102.807 17.6658 102.949 17.8074 103.125 17.8074H112.326V17.8073C112.345 17.8074 112.363 17.8074 112.381 17.8074C115.472 17.8074 116.451 16.3917 116.451 14.6454C116.451 13.246 115.822 12.0589 113.982 11.6425C115.175 11.1684 115.605 10.2835 115.605 9.27004C115.605 7.75656 114.646 6.52965 111.618 6.52965C111.608 6.52965 111.597 6.52966 111.586 6.52969L103.125 6.52965ZM111.586 15.2778H106.615V13.3806H111.586V13.3837C111.623 13.3817 111.661 13.3806 111.7 13.3806C112.481 13.3806 112.644 13.7866 112.644 14.3292C112.644 14.8718 112.481 15.2778 111.7 15.2778C111.661 15.2778 111.623 15.2768 111.586 15.2747V15.2778ZM110.951 10.851H106.615V9.05924H110.951V9.05973C111.651 9.07516 111.798 9.45328 111.798 9.95513C111.798 10.457 111.651 10.8351 110.951 10.8505V10.851Z" fill="#E61919"/>
<path d="M118.461 6.52965C118.286 6.52965 118.144 6.67121 118.144 6.84585V17.4912C118.144 17.6658 118.286 17.8074 118.461 17.8074H128.932C129.107 17.8074 129.25 17.6658 129.25 17.4912V15.594C129.25 15.4194 129.107 15.2778 128.932 15.2778H121.951V13.3806H126.548C126.703 13.3806 126.836 13.2689 126.861 13.1164L127.178 11.2192C127.211 11.0265 127.061 10.851 126.865 10.851H121.951V9.05924H128.932C129.107 9.05924 129.25 8.91767 129.25 8.74304V6.84585C129.25 6.67121 129.107 6.52965 128.932 6.52965H118.461Z" fill="#E61919"/>
</svg>
