<svg width="33" height="32" viewBox="0 0 33 32" fill="none" xmlns="http://www.w3.org/2000/svg">
<path d="M5.77604 9.24341C5.64373 9.14615 5.45429 9.19752 5.39056 9.34793L3.658 13.4372C3.33757 14.1935 3.5137 15.0666 4.10304 15.6432L7.1927 18.6661L4.19397 18.6596C4.01199 18.6593 3.88872 18.8429 3.95963 19.0087L5.81906 23.3574C6.04626 23.8888 6.49331 24.2979 7.04639 24.4806L15.8753 27.3966C16.2927 27.5345 16.7439 27.5345 17.1613 27.3966L25.9902 24.4806C26.5433 24.2979 26.9903 23.8888 27.2175 23.3574L29.077 19.0087C29.1479 18.8429 29.0246 18.6593 28.8426 18.6596L25.8439 18.6661L28.9335 15.6432C29.5229 15.0666 29.699 14.1935 29.3786 13.4372L27.646 9.34793C27.5823 9.19752 27.3929 9.14615 27.2605 9.24341L25.1833 10.7703L25.1641 8.16794C25.1581 7.36477 24.6695 6.64224 23.9214 6.33055L19.5761 4.51995C19.4087 4.45023 19.2237 4.57181 19.2237 4.75146V6.45876C19.2237 7.08424 19.518 7.67407 20.0199 8.05433L24.501 11.4496V18.6661L16.5183 25.5343L8.53561 18.6661V11.4496L13.0167 8.05433C13.5186 7.67407 13.8129 7.08424 13.8129 6.45876V4.75146C13.8129 4.57181 13.6278 4.45023 13.4605 4.51995L9.11516 6.33055C8.3671 6.64224 7.87845 7.36477 7.87251 8.16793L7.85326 10.7703L5.77604 9.24341Z" fill="#E61919"/>
</svg>
